<?xml version="1.0" encoding="iso-8859-1"?>
<!-- Generator: Adobe Illustrator 19.0.0, SVG Export Plug-In . SVG Version: 6.00 Build 0)  -->
<svg xmlns="http://www.w3.org/2000/svg" xmlns:xlink="http://www.w3.org/1999/xlink" version="1.1" id="Layer_1" x="0px" y="0px" viewBox="0 0 512 512" style="enable-background:new 0 0 512 512;" xml:space="preserve">
<path style="fill:#EBF2FA;" d="M83.537,256.539c-41.902,0-75.992-34.09-75.992-75.992s34.089-75.992,75.992-75.992  c20.146,0,39.041,7.768,53.356,21.903C136.997,60.87,190.387,7.545,256,7.545S375.003,60.87,375.107,126.458  c14.313-14.133,33.209-21.902,53.356-21.902c41.902,0,75.992,34.09,75.992,75.992s-34.09,75.992-75.992,75.992H83.537z"/>
<path style="fill:#DAE3EA;" d="M156.974,218.744c-41.902,0-75.992-34.089-75.992-75.992c0-13.766,3.698-26.677,10.126-37.825  c-2.5-0.245-5.025-0.371-7.571-0.371c-41.902,0-75.992,34.09-75.992,75.992s34.089,75.992,75.992,75.992h344.926  c27.983,0,52.464-15.214,65.652-37.795H156.974z"/>
<path d="M428.516,97.011c-16.948-0.011-33.09,4.978-46.789,14.277C374.119,48.67,320.636,0,256,0S137.881,48.67,130.274,111.287  c-13.7-9.299-29.842-14.287-46.79-14.277C37.593,97.039-0.04,134.73,0,180.622c0.04,46.028,37.5,83.462,83.537,83.462h229.479  c4.465,0,8.084-3.62,8.084-8.084l0,0c0-4.465-3.62-8.084-8.084-8.084H84.56c-36.97,0-67.819-29.356-68.383-66.322  c-0.575-37.624,29.864-68.415,67.36-68.415c18.252,0,35.346,7.193,48.132,20.254c2.75,2.81,7.207,3.291,10.557,0.87  c2.171-1.568,3.336-4.184,3.301-6.862l-0.011-0.788c0-60.922,49.563-110.484,110.484-110.484s110.484,49.563,110.484,110.484  l-0.01,0.781c-0.036,2.679,1.129,5.296,3.298,6.866c3.348,2.423,7.807,1.941,10.559-0.868c12.786-13.06,29.879-20.254,48.131-20.254  c37.202-0.001,67.41,30.24,67.37,67.443c-0.042,37.113-30.248,67.294-67.37,67.294h-76.068c-4.465,0-8.084,3.62-8.084,8.084l0,0  c0,4.465,3.62,8.084,8.084,8.084h76.068c46.037,0,83.497-37.434,83.537-83.462C512.04,134.73,474.407,97.039,428.516,97.011z"/>
<path d="M256,291.032c-4.465,0-8.084,3.62-8.084,8.084v75.453c0,4.465,3.62,8.084,8.084,8.084c4.465,0,8.084-3.62,8.084-8.084  v-75.453C264.084,294.651,260.465,291.032,256,291.032z"/>
<path d="M450.021,312.589c-4.465,0-8.084,3.62-8.084,8.084v43.116c0,4.465,3.62,8.084,8.084,8.084s8.084-3.62,8.084-8.084v-43.116  C458.105,316.209,454.486,312.589,450.021,312.589z"/>
<path d="M83.537,291.032c-4.465,0-8.084,3.62-8.084,8.084v64.674c0,4.465,3.62,8.084,8.084,8.084s8.084-3.62,8.084-8.084v-64.674  C91.621,294.651,88.002,291.032,83.537,291.032z"/>
<path d="M191.326,420.379c-4.465,0-8.084,3.62-8.084,8.084v75.453c0,4.465,3.62,8.084,8.084,8.084c4.465,0,8.084-3.62,8.084-8.084  v-75.453C199.411,423.999,195.791,420.379,191.326,420.379z"/>
<path d="M137.432,344.926c-4.465,0-8.084,3.62-8.084,8.084v53.895c0,4.465,3.62,8.084,8.084,8.084c4.465,0,8.084-3.62,8.084-8.084  v-53.895C145.516,348.546,141.896,344.926,137.432,344.926z"/>
<path d="M342.232,344.926c-4.465,0-8.084,3.62-8.084,8.084v75.453c0,4.465,3.62,8.084,8.084,8.084s8.084-3.62,8.084-8.084v-75.453  C350.316,348.546,346.696,344.926,342.232,344.926z"/>
<g>
</g>
<g>
</g>
<g>
</g>
<g>
</g>
<g>
</g>
<g>
</g>
<g>
</g>
<g>
</g>
<g>
</g>
<g>
</g>
<g>
</g>
<g>
</g>
<g>
</g>
<g>
</g>
<g>
</g>
</svg>
