<?xml version="1.0" encoding="utf-8"?>
<!-- Generator: Adobe Illustrator 22.0.0, SVG Export Plug-In . SVG Version: 6.00 Build 0)  -->
<svg version="1.1" id="Layer_1" xmlns="http://www.w3.org/2000/svg" xmlns:xlink="http://www.w3.org/1999/xlink" x="0px" y="0px"
	 viewBox="0 0 500 500" style="enable-background:new 0 0 500 500;" xml:space="preserve">
<style type="text/css">
	.st0{fill:#C9C9C9;}
	.st1{fill:#A0A0A0;}
	.st2{fill:#71CCFF;}
	.st3{fill:#231F20;}
	.st4{fill:#F9F9F9;}
	.st5{fill:#7A7979;}
	.st6{fill:#4C4C4C;}
	.st7{fill:#F9B630;}
	.st8{fill:#D88A0E;}
	.st9{fill:#FFEDCC;}
	.st10{fill:#C0E7F9;}
	.st11{fill:#08B26C;}
	.st12{fill:#15A9EA;}
	.st13{fill:none;stroke:#C9C9C9;stroke-width:10;stroke-linecap:round;stroke-linejoin:round;stroke-miterlimit:10;}
	.st14{fill:none;stroke:#231F20;stroke-width:10;stroke-linecap:round;stroke-linejoin:round;stroke-miterlimit:10;}
	.st15{fill:#FFFFFF;}
	.st16{fill:#35EF9F;}
	.st17{fill:#22A6E0;}
	.st18{fill:#FC3A6D;}
	.st19{fill:#FFA9C8;}
	.st20{fill:#038E52;}
	.st21{fill:#E2074B;}
</style>
<g>
	<g>
		<circle class="st0" cx="250" cy="250" r="143.9"/>
	</g>
</g>
<g>
	<g>
		<path class="st3" d="M250,398.9c-82.1,0-148.9-66.8-148.9-148.9S167.9,101.1,250,101.1S398.9,167.9,398.9,250
			S332.1,398.9,250,398.9z M250,111.1c-76.6,0-138.9,62.3-138.9,138.9S173.4,388.9,250,388.9S388.9,326.6,388.9,250
			S326.6,111.1,250,111.1z"/>
	</g>
</g>
<g>
	<g>
		<path class="st4" d="M204.4,139.8c-2,0-3.9-1.2-4.6-3.2c-1-2.6,0.2-5.5,2.8-6.5c1.2-0.5,2.5-1,3.8-1.4c2.6-0.9,5.5,0.4,6.4,3
			c0.9,2.6-0.4,5.5-3,6.4c-1.2,0.4-2.3,0.9-3.5,1.3C205.6,139.7,205,139.8,204.4,139.8z"/>
	</g>
</g>
<g>
	<g>
		<path class="st4" d="M141.1,314c-1.8,0-3.5-0.9-4.4-2.6c-10.2-18.7-15.6-40-15.6-61.4c0-22.6,6-44.9,17.3-64.4
			c10.9-18.9,26.6-34.9,45.4-46.1c2.4-1.4,5.4-0.7,6.9,1.7s0.7,5.4-1.7,6.9c-35.6,21.4-57.8,60.5-57.8,101.9
			c0,19.8,5,39.3,14.4,56.6c1.3,2.4,0.4,5.5-2,6.8C142.7,313.8,141.9,314,141.1,314z"/>
	</g>
</g>
<g>
	<g>
		<path class="st15" d="M285.4,250c28.2-39.6,87.1-122.5,87.1-122.5L250,214.6c-39.6-28.2-122.5-87.1-122.5-87.1L214.6,250
			c-28.2,39.6-87.1,122.5-87.1,122.5L250,285.4c39.6,28.2,122.5,87.1,122.5,87.1L285.4,250z"/>
	</g>
</g>
<g>
	<g>
		<path class="st3" d="M372.5,377.5c-1,0-2-0.3-2.9-0.9L250,291.5l-119.6,85.1c-2,1.4-4.7,1.2-6.4-0.5c-1.7-1.7-2-4.4-0.5-6.4
			L208.5,250l-85.1-119.6c-1.4-2-1.2-4.7,0.5-6.4c1.7-1.7,4.4-2,6.4-0.5L250,208.5l119.6-85.1c2-1.4,4.7-1.2,6.4,0.5
			c1.7,1.7,2,4.4,0.5,6.4L291.5,250l85.1,119.6c1.4,2,1.2,4.7-0.5,6.4C375.1,377,373.8,377.5,372.5,377.5z M250,280.4
			c1,0,2,0.3,2.9,0.9l98.3,70l-70-98.3c-1.2-1.7-1.2-4.1,0-5.8l70-98.3l-98.3,70c-1.7,1.2-4.1,1.2-5.8,0l-98.3-70l70,98.3
			c1.2,1.7,1.2,4.1,0,5.8l-70,98.3l98.3-70C248,280.7,249,280.4,250,280.4z"/>
	</g>
</g>
<g>
	<g>
		<polygon class="st2" points="214.6,214.6 250,250 250,5 		"/>
	</g>
</g>
<g>
	<g>
		<path class="st3" d="M250,255c-1.3,0-2.6-0.5-3.5-1.5l-35.4-35.4c-1.1-1.1-1.7-2.8-1.4-4.4L245.1,4.2c0.4-2.6,2.7-4.4,5.3-4.2
			c2.6,0.2,4.6,2.4,4.6,5v245c0,2-1.2,3.8-3.1,4.6C251.3,254.9,250.6,255,250,255z M220,212.9l25,25V64.7L220,212.9z"/>
	</g>
</g>
<g>
	<g>
		<polygon class="st7" points="250,250 285.4,214.6 250,5 		"/>
	</g>
</g>
<g>
	<g>
		<path class="st3" d="M267.1,111.1c-2.4,0-4.5-1.7-4.9-4.2l-0.8-4.8c-0.5-2.7,1.4-5.3,4.1-5.8c2.7-0.5,5.3,1.4,5.8,4.1l0.8,4.8
			c0.5,2.7-1.4,5.3-4.1,5.8C267.6,111.1,267.3,111.1,267.1,111.1z"/>
	</g>
</g>
<g>
	<g>
		<path class="st3" d="M250,255c-0.6,0-1.3-0.1-1.9-0.4c-1.9-0.8-3.1-2.6-3.1-4.6V5c0-2.6,2-4.8,4.6-5c2.6-0.2,4.9,1.6,5.3,4.2
			L268,81.9c0.5,2.7-1.4,5.3-4.1,5.8c-2.7,0.5-5.3-1.4-5.8-4.1L255,64.7v173.2l25-25l-14.6-86.7c-0.5-2.7,1.4-5.3,4.1-5.8
			c2.7-0.5,5.3,1.4,5.8,4.1l15.1,89.3c0.3,1.6-0.3,3.2-1.4,4.4l-35.4,35.4C252.6,254.5,251.3,255,250,255z"/>
	</g>
</g>
<g>
	<g>
		<polygon class="st7" points="250,250 214.6,285.4 250,495 		"/>
	</g>
</g>
<g>
	<g>
		<path class="st3" d="M228.2,371c-2.4,0-4.5-1.7-4.9-4.2l-0.6-3.5c-0.5-2.7,1.4-5.3,4.1-5.8c2.7-0.5,5.3,1.4,5.8,4.1l0.6,3.5
			c0.5,2.7-1.4,5.3-4.1,5.8C228.8,371,228.5,371,228.2,371z"/>
	</g>
</g>
<g>
	<g>
		<path class="st3" d="M250,500c-2.4,0-4.5-1.7-4.9-4.2L226.9,388c-0.5-2.7,1.4-5.3,4.1-5.8c2.7-0.5,5.3,1.4,5.8,4.1l8.3,48.9V262.1
			l-25,25l9.2,54.4c0.5,2.7-1.4,5.3-4.1,5.8c-2.7,0.5-5.3-1.4-5.8-4.1l-9.6-57c-0.3-1.6,0.3-3.2,1.4-4.4l35.4-35.4
			c1.4-1.4,3.6-1.9,5.4-1.1c1.9,0.8,3.1,2.6,3.1,4.6v245c0,2.6-2,4.8-4.6,5C250.3,500,250.1,500,250,500z"/>
	</g>
</g>
<g>
	<g>
		<polygon class="st2" points="250,250 285.4,285.4 250,495 		"/>
	</g>
</g>
<g>
	<g>
		<path class="st3" d="M250,500c-0.1,0-0.3,0-0.4,0c-2.6-0.2-4.6-2.4-4.6-5V250c0-2,1.2-3.8,3.1-4.6c1.9-0.8,4-0.3,5.4,1.1
			l35.4,35.4c1.1,1.1,1.7,2.8,1.4,4.4l-35.4,209.6C254.5,498.3,252.4,500,250,500z M255,262.1v173.2l25-148.2L255,262.1z"/>
	</g>
</g>
<g>
	<g>
		<polygon class="st2" points="285.4,214.6 495,250 250,250 		"/>
	</g>
</g>
<g>
	<g>
		<polygon class="st7" points="285.4,285.4 250,250 495,250 		"/>
	</g>
</g>
<g>
	<g>
		<path class="st3" d="M495,255H250c-2,0-3.8-1.2-4.6-3.1c-0.8-1.9-0.3-4,1.1-5.4l35.4-35.4c1.1-1.1,2.8-1.7,4.4-1.4l209.6,35.4
			c2.6,0.4,4.4,2.8,4.2,5.3C499.8,253,497.6,255,495,255z M262.1,245h173.2l-148.2-25L262.1,245z"/>
	</g>
</g>
<g>
	<g>
		<path class="st3" d="M285.4,290.4c-1.3,0-2.6-0.5-3.5-1.5l-35.4-35.4c-1.4-1.4-1.9-3.6-1.1-5.4c0.8-1.9,2.6-3.1,4.6-3.1h245
			c2.6,0,4.8,2,5,4.6c0.2,2.6-1.6,4.9-4.2,5.3l-101.6,17.1c-2.7,0.5-5.3-1.4-5.8-4.1c-0.5-2.7,1.4-5.3,4.1-5.8l42.7-7.2H262.1l25,25
			l55-9.3c2.7-0.5,5.3,1.4,5.8,4.1c0.5,2.7-1.4,5.3-4.1,5.8l-57.6,9.7C285.9,290.3,285.6,290.4,285.4,290.4z"/>
	</g>
</g>
<g>
	<g>
		<path class="st3" d="M365,276.9c-2.4,0-4.5-1.7-4.9-4.2c-0.5-2.7,1.4-5.3,4.1-5.8l4-0.7c2.7-0.5,5.3,1.4,5.8,4.1
			c0.5,2.7-1.4,5.3-4.1,5.8l-4,0.7C365.6,276.9,365.3,276.9,365,276.9z"/>
	</g>
</g>
<g>
	<g>
		<polygon class="st7" points="214.6,214.6 250,250 5,250 		"/>
	</g>
</g>
<g>
	<g>
		<path class="st3" d="M250,255H5c-2.6,0-4.8-2-5-4.6c-0.2-2.6,1.6-4.9,4.2-5.3l94.3-15.9c2.7-0.5,5.3,1.4,5.8,4.1
			c0.5,2.7-1.4,5.3-4.1,5.8l-35.4,6h173.2l-25-25l-70,11.8c-2.7,0.5-5.3-1.4-5.8-4.1c-0.5-2.7,1.4-5.3,4.1-5.8l72.5-12.2
			c1.6-0.3,3.2,0.3,4.4,1.4l35.4,35.4c1.4,1.4,1.9,3.6,1.1,5.4C253.8,253.8,252,255,250,255z"/>
	</g>
</g>
<g>
	<g>
		<path class="st3" d="M115.8,236.3c-2.4,0-4.5-1.7-4.9-4.2c-0.5-2.7,1.4-5.3,4.1-5.8l4.8-0.8c2.7-0.5,5.3,1.4,5.8,4.1
			c0.5,2.7-1.4,5.3-4.1,5.8l-4.8,0.8C116.4,236.3,116.1,236.3,115.8,236.3z"/>
	</g>
</g>
<g>
	<g>
		<polygon class="st2" points="250,250 214.6,285.4 5,250 		"/>
	</g>
</g>
<g>
	<g>
		<path class="st3" d="M214.6,290.4c-0.3,0-0.6,0-0.8-0.1L4.2,254.9c-2.6-0.4-4.4-2.8-4.2-5.3c0.2-2.6,2.4-4.6,5-4.6h245
			c2,0,3.8,1.2,4.6,3.1c0.8,1.9,0.3,4-1.1,5.4l-35.4,35.4C217.2,289.8,216,290.4,214.6,290.4z M64.7,255l148.2,25l25-25H64.7z"/>
	</g>
</g>
</svg>
